<svg width="42" height="41" viewBox="0 0 42 41" fill="none" xmlns="http://www.w3.org/2000/svg">
<ellipse cx="21" cy="20.5" rx="21" ry="20.5" fill="#2B4CC4"/>
<path d="M23.1 17.625L24 18.4875L14.9 27.2084H14V26.3459L23.1 17.625ZM26.7 11.875C26.5 11.875 26.2 11.9709 26 12.1625L24.2 13.8875L27.9 17.5292L29.7 15.7084C30.1 15.325 30.1 14.75 29.7 14.3667L27.4 12.1625C27.2 11.9709 26.9 11.875 26.7 11.875ZM23.1 14.9417L12 25.4834V29.125H15.8L26.8 18.4875L23.1 14.9417ZM16 10.9167V13.7917H19V15.7084H16V18.5834H14V15.7084H11V13.7917H14V10.9167H16Z" fill="white"/>
</svg>
