<svg width="47" height="45" viewBox="0 0 47 45" fill="none" xmlns="http://www.w3.org/2000/svg">
<g clip-path="url(#clip0_1193_1416)">
<path d="M24.1283 9.50581C24.514 8.89122 24.5536 8.1463 24.1604 7.59474C23.8978 7.22626 23.4741 6.99527 22.9827 6.95259C22.4913 6.90991 21.9725 7.05904 21.5402 7.36717C21.1079 7.6753 20.7977 8.11719 20.6778 8.59564C20.5579 9.07408 20.6381 9.54987 20.9008 9.91836C21.2994 10.4775 22.0282 10.6805 22.7435 10.5045C24.221 13.9414 24.811 16.8625 21.4656 19.961C21.4656 19.961 25.4708 23.4813 30.1095 20.1747C34.7482 16.868 32.2348 12.3475 32.2348 12.3475C28.5885 15.1944 25.3959 11.3883 24.1283 9.50581Z" fill="#F19534"/>
<path d="M10.7447 19.046C10.0379 19.2102 9.32077 19.0047 8.9276 18.4532C8.66493 18.0847 8.58472 17.6089 8.70464 17.1304C8.82455 16.652 9.13475 16.2101 9.567 15.902C9.99926 15.5938 10.5182 15.4447 11.0095 15.4874C11.5009 15.5301 11.9246 15.7611 12.1872 16.1295C12.5858 16.6887 12.54 17.4439 12.1404 18.0626C14.9075 20.5802 17.4765 22.0906 21.4966 19.9387C21.4966 19.9387 23.5183 24.873 18.8796 28.1796C14.2409 31.4863 10.7908 27.6365 10.7908 27.6365C14.6676 25.1176 12.1108 20.8583 10.7447 19.046Z" fill="#F19534"/>
<path d="M30.0469 20.2194C30.067 20.205 30.0885 20.1925 30.1087 20.1782C31.387 19.2669 32.1202 18.2636 32.5132 17.2897L30.0469 20.2194Z" fill="#FFCA28"/>
<path d="M28.989 4.61608C28.1823 5.06163 27.9016 6.17411 28.3622 7.09495C28.6503 7.6696 29.1579 8.03595 29.6954 8.12201L30.5117 10.404C30.5117 10.404 32.8885 15.4765 29.3691 19.3208C26.556 22.394 21.6629 18.0733 20.2318 16.6814C20.6726 15.9642 20.7147 15.0995 20.2562 14.4564C19.6127 13.5536 18.2342 13.4339 17.1753 14.1888C16.1163 14.9436 15.7799 16.2858 16.4234 17.1885C16.8846 17.8355 17.7265 18.0787 18.5568 17.884C19.4513 19.6267 22.0034 25.3572 18.0486 27.3877C14.0333 29.447 8.72517 25.3588 7.34583 24.2006C7.56472 23.584 7.42509 22.8719 6.92332 22.3574C6.20168 21.6198 5.00708 21.5733 4.25436 22.251C3.50164 22.9286 3.47748 24.0741 4.19777 24.8098C4.7217 25.3458 5.4975 25.5153 6.17076 25.3088L19.7701 38.3616C19.7701 38.3616 23.4483 38.2639 30.6683 33.1171C37.8883 27.9704 39.1802 24.5252 39.1802 24.5252L31.2543 7.36762C31.5686 6.83275 31.6007 6.11045 31.2848 5.47789C30.8251 4.55354 29.798 4.16893 28.989 4.61608Z" fill="#FFCA28"/>
<path d="M28.0192 29.2115C29.2235 28.3531 29.4926 26.6651 28.6203 25.4414C27.7479 24.2176 26.0645 23.9215 24.8602 24.78C23.656 25.6385 23.3868 27.3264 24.2592 28.5502C25.1315 29.7739 26.8149 30.07 28.0192 29.2115Z" fill="#2B4CC4"/>
<path d="M25.2508 25.3278C25.393 25.3473 25.5739 25.44 25.6168 25.8411C25.6597 26.2423 25.0672 27.249 24.964 27.4405C24.8622 27.634 24.7311 27.6727 24.6588 27.6754C24.3094 27.6826 24.1405 27.2562 24.1349 26.9263C24.1203 26.2143 24.4597 25.2268 25.2508 25.3278Z" fill="#2B4CC4"/>
<path d="M26.8671 27.9371C26.6929 28.2138 26.1038 29.0971 26.63 29.2717C26.9405 29.3757 27.3304 29.2359 27.6363 29.0351C27.9423 28.8343 28.1784 28.5451 28.3596 28.2403C29.2187 26.7932 28.2828 25.2671 27.9599 25.3304C27.6275 25.3946 27.6682 25.8117 27.6282 26.0302C27.5021 26.6886 27.2435 27.3364 26.8671 27.9371Z" fill="#00796B"/>
<path d="M37.1577 16.6208C36.3328 14.7248 34.7405 15.2382 34.7405 15.2382C34.7405 15.2382 33.8107 15.7052 34.7377 17.8393C35.6633 19.9714 36.5931 19.5043 36.5931 19.5043C36.5931 19.5043 37.9802 18.5183 37.1577 16.6208Z" fill="#2B4CC4"/>
<path d="M35.5139 15.5363C36.0659 15.6666 36.0715 16.4369 35.7307 17.195C35.6304 17.4191 35.3748 17.5437 35.2814 17.4836C35.0159 17.3102 34.8617 17.0086 34.8224 16.6883C34.7002 15.7306 35.2342 15.4708 35.5139 15.5363Z" fill="#2B4CC4"/>
<path d="M12.9407 33.9587C11.4165 32.5641 12.422 31.2227 12.422 31.2227C12.422 31.2227 13.1668 30.4961 14.8818 32.0684C16.5955 33.6387 15.8507 34.3654 15.8507 34.3654C15.8507 34.3654 14.464 35.3567 12.9407 33.9587Z" fill="#2B4CC4"/>
<path d="M13.219 31.4979C13.6551 31.4748 13.7102 31.8126 13.6079 32.1475C13.4932 32.5314 13.4527 32.8913 13.3952 33.2748C13.3861 33.3331 13.3752 33.3984 13.3283 33.4463C13.2389 33.5388 13.0922 33.5081 12.9974 33.4462C12.7297 33.2743 12.5462 32.9791 12.5317 32.6556C12.4888 31.7334 13.0496 31.5064 13.219 31.4979Z" fill="#2B4CC4"/>
<path d="M34.2431 21.1048C34.6233 21.965 34.2895 22.9887 33.4947 23.3941C32.6999 23.7995 32.1456 23.2304 31.7654 22.3702C31.3852 21.5101 31.3227 20.6883 32.1153 20.2845C32.9102 19.879 33.8643 20.2466 34.2431 21.1048ZM18.6703 32.2058C19.3595 32.8457 20.4361 32.8641 21.0785 32.2449C21.721 31.6257 21.3638 30.9162 20.6746 30.2763C19.9855 29.6363 19.229 29.3093 18.5888 29.9268C17.9485 30.5444 17.9848 31.5662 18.6703 32.2058Z" fill="#F44336"/>
<path d="M19.3549 30.9637C19.303 31.2367 19.129 31.8357 18.8165 31.6957C18.39 31.5047 18.3027 30.8186 18.4902 30.4374C18.6776 30.0563 19.0187 30.0089 19.1659 30.1255C19.3508 30.2759 19.3997 30.7187 19.3549 30.9637ZM32.4349 22.3621C32.1929 22.4915 31.7043 21.8583 31.9352 20.9223C32.0454 20.4753 32.6596 20.475 32.8356 20.9396C33.0023 21.382 32.8782 22.1267 32.4349 22.3621Z" fill="#FFA8A4"/>
<path d="M37.797 21.7519C36.8641 23.2803 34.8751 26.998 29.1953 31.0468C23.5156 35.0955 19.3526 35.7634 17.6034 36.1468C17.6034 36.1468 17.2785 36.7094 17.4418 36.9384L18.6948 38.6961C18.8621 38.9309 19.1613 39.0428 19.4844 38.9939C20.9076 38.7737 24.9871 37.7423 30.9444 33.4957C36.9017 29.249 39.2072 25.7289 39.8794 24.4553C39.9542 24.3137 39.9913 24.1615 39.9871 24.0135C39.9829 23.8656 39.9375 23.7271 39.8555 23.6118L38.6025 21.8541C38.4348 21.6282 37.797 21.7519 37.797 21.7519Z" fill="#FFCA28"/>
<path d="M23.9448 35.2617C24.6465 34.9198 24.8694 34.8299 25.0391 35.158C25.3695 35.8061 23.8441 36.6834 22.8654 37.0961C20.8425 37.9481 20.1949 37.788 19.9323 37.4196C19.6915 37.0818 19.9674 36.8247 20.5382 36.6308C21.2213 36.4001 22.294 36.0672 23.9448 35.2617Z" fill="#FFF59D"/>
<path d="M38.0715 22.1374C38.0715 22.1374 35.638 26.5719 29.2508 31.125C22.8637 35.6781 17.8779 36.5323 17.8779 36.5323" stroke="#F19534" stroke-width="0.625" stroke-miterlimit="10" stroke-linecap="round"/>
<path d="M12.7813 25.584C13.4554 24.0098 13.1692 22.2537 11.7504 20.145C11.6216 19.9547 11.6448 19.8547 11.7553 19.7587C11.9333 19.6058 12.0694 19.7305 12.142 19.837C13.68 22.1082 14.3409 23.7411 13.5806 25.469C13.5429 25.5535 13.2509 26.1243 12.9355 26.0987C12.5617 26.0716 12.7378 25.6841 12.7813 25.584ZM9.24195 18.3122C8.95765 17.9939 8.60817 17.3047 9.47023 16.2642C9.72292 15.9603 10.008 15.9529 10.1159 16.0285C10.385 16.2166 10.1961 16.5009 10.1005 16.6179C9.44393 17.4256 9.65123 17.8017 9.64114 18.1428C9.63104 18.4839 9.33021 18.4076 9.24195 18.3122ZM23.9284 16.947C24.4244 15.3645 24.4896 13.945 23.4823 11.5373C23.3942 11.3238 23.4215 11.2295 23.5407 11.1503C23.7337 11.0184 23.8501 11.1628 23.9034 11.2803C25.0803 13.7744 25.1509 14.6739 24.7172 16.8741C24.6678 17.1222 24.3941 17.5102 24.0834 17.5101C23.8037 17.5109 23.8676 17.1458 23.9284 16.947ZM21.2226 9.79777C20.9383 9.47946 20.5888 8.79027 21.4509 7.74977C21.7036 7.44587 21.9886 7.43841 22.0965 7.51402C22.3657 7.70211 22.1767 7.98647 22.0812 8.1035C21.4246 8.9112 21.6319 9.28727 21.6218 9.62835C21.6139 9.96783 21.3109 9.89316 21.2226 9.79777Z" fill="#FFCA28"/>
<path d="M16.8155 29.0549C13.4971 29.9035 10.8608 27.8252 9.64118 26.9763C9.47998 26.8638 9.40481 26.7015 9.54902 26.5296C9.69323 26.3577 9.86783 26.3801 10.0313 26.4909C10.9159 27.1067 14.0316 29.0476 16.9616 28.142C17.1748 28.0764 17.5427 28.0242 17.5673 28.3665C17.5812 28.5897 17.3498 28.9187 16.8155 29.0549ZM6.18923 23.1047C5.90605 22.9727 5.70491 22.7995 4.84931 23.0439C4.63339 23.1057 4.42262 23.0516 4.3608 22.8654C4.29897 22.6792 4.39645 22.437 4.68335 22.29C5.61579 21.8125 6.32043 22.4125 6.53719 22.6408C6.74491 22.8612 6.47465 23.2352 6.18923 23.1047ZM31.4301 18.6369C33.3146 15.7767 32.2096 12.6068 31.8049 11.177C31.7511 10.9879 31.6222 10.8639 31.4127 10.9442C31.2032 11.0244 31.1674 11.1968 31.2189 11.3875C31.5124 12.4245 32.3312 16.0028 30.5195 18.4773C30.3879 18.6574 30.2186 18.9882 30.5342 19.1231C30.7406 19.209 31.1271 19.0976 31.4301 18.6369ZM29.2708 6.65113C29.2384 6.34038 29.1402 6.09374 29.6503 5.36461C29.7791 5.18066 29.7967 4.96377 29.6409 4.8446C29.485 4.72543 29.2243 4.7386 28.9918 4.96189C28.2362 5.68759 28.5737 6.5494 28.7188 6.82877C28.8594 7.09699 29.3033 6.96188 29.2708 6.65113ZM17.3136 16.5909C17.2801 16.255 17.287 15.7579 17.9704 15.0635C18.2323 14.7962 18.2407 14.6233 18.0941 14.4745C17.7914 14.1636 17.2986 14.5522 17.0627 14.8039C16.2754 15.6414 16.5669 16.4813 16.7248 16.7833C16.8731 17.0719 17.3493 16.9252 17.3136 16.5909Z" fill="#FFF59D"/>
</g>
<defs>
<clipPath id="clip0_1193_1416">
<rect width="35.1916" height="30" fill="white" transform="translate(0 20.4277) rotate(-35.483)"/>
</clipPath>
</defs>
</svg>
