<svg width="42" height="41" viewBox="0 0 42 41" fill="none" xmlns="http://www.w3.org/2000/svg">
<ellipse cx="21" cy="20.5" rx="21" ry="20.5" fill="#F4F4F4"/>
<g clip-path="url(#clip0_1193_1327)">
<path d="M23.28 10.9167C23.6998 10.9168 24.1088 11.0435 24.4493 11.2788C24.7898 11.514 25.0444 11.846 25.177 12.2277L25.72 13.7917H29C29.2652 13.7917 29.5196 13.8927 29.7071 14.0724C29.8946 14.2521 30 14.4959 30 14.75C30 15.0042 29.8946 15.2479 29.7071 15.4277C29.5196 15.6074 29.2652 15.7084 29 15.7084L28.997 15.7764L28.13 27.4134C28.0759 28.1385 27.7372 28.817 27.182 29.3124C26.6269 29.8078 25.8965 30.0833 25.138 30.0834H16.862C16.1035 30.0833 15.3731 29.8078 14.818 29.3124C14.2628 28.817 13.9241 28.1385 13.87 27.4134L13.003 15.7754C13.0012 15.7531 13.0002 15.7307 13 15.7084C12.7348 15.7084 12.4804 15.6074 12.2929 15.4277C12.1054 15.2479 12 15.0042 12 14.75C12 14.4959 12.1054 14.2521 12.2929 14.0724C12.4804 13.8927 12.7348 13.7917 13 13.7917H16.28L16.823 12.2277C16.9557 11.8459 17.2104 11.5138 17.5511 11.2785C17.8918 11.0432 18.3011 10.9166 18.721 10.9167H23.28ZM26.997 15.7084H15.003L15.865 27.2764C15.883 27.5181 15.9958 27.7443 16.1808 27.9095C16.3657 28.0747 16.6092 28.1666 16.862 28.1667H25.138C25.3908 28.1666 25.6343 28.0747 25.8192 27.9095C26.0042 27.7443 26.117 27.5181 26.135 27.2764L26.997 15.7084ZM19 18.5834C19.2449 18.5834 19.4813 18.6696 19.6644 18.8255C19.8474 18.9815 19.9643 19.1964 19.993 19.4296L20 19.5417V24.3334C19.9997 24.5776 19.9021 24.8126 19.7272 24.9902C19.5522 25.1678 19.313 25.2747 19.0586 25.289C18.8042 25.3033 18.5536 25.224 18.3582 25.0672C18.1627 24.9104 18.0371 24.688 18.007 24.4455L18 24.3334V19.5417C18 19.2875 18.1054 19.0438 18.2929 18.864C18.4804 18.6843 18.7348 18.5834 19 18.5834ZM23 18.5834C23.2652 18.5834 23.5196 18.6843 23.7071 18.864C23.8946 19.0438 24 19.2875 24 19.5417V24.3334C24 24.5875 23.8946 24.8313 23.7071 25.011C23.5196 25.1907 23.2652 25.2917 23 25.2917C22.7348 25.2917 22.4804 25.1907 22.2929 25.011C22.1054 24.8313 22 24.5875 22 24.3334V19.5417C22 19.2875 22.1054 19.0438 22.2929 18.864C22.4804 18.6843 22.7348 18.5834 23 18.5834ZM23.28 12.8334H18.72L18.387 13.7917H23.613L23.28 12.8334Z" fill="#2B4CC4"/>
</g>
<defs>
<clipPath id="clip0_1193_1327">
<rect width="24" height="23" fill="white" transform="translate(9 9)"/>
</clipPath>
</defs>
</svg>
