<svg width="16" height="21" viewBox="0 0 16 21" fill="none" xmlns="http://www.w3.org/2000/svg">
<path d="M4.99998 7.99979C5.01034 7.20737 5.32974 6.45031 5.89012 5.88993C6.4505 5.32955 7.20756 5.01015 7.99998 4.99979C8.79241 5.01015 9.54947 5.32955 10.1098 5.88993C10.6702 6.45031 10.9896 7.20737 11 7.99979C10.9896 8.79222 10.6702 9.54928 10.1098 10.1097C9.54947 10.67 8.79241 10.9894 7.99998 10.9998C7.20756 10.9894 6.4505 10.67 5.89012 10.1097C5.32974 9.54928 5.01034 8.79222 4.99998 7.99979ZM7.99998 16.9998L12 17.9998V14.9198C10.7937 15.6463 9.40801 16.0204 7.99998 15.9998C6.59196 16.0204 5.20631 15.6463 3.99998 14.9198V17.9998M7.99998 1.99979C7.21195 1.98541 6.42931 2.13236 5.70015 2.43158C4.971 2.73081 4.31075 3.176 3.75998 3.73979C3.1901 4.29116 2.73976 4.95389 2.43697 5.68676C2.13419 6.41964 1.98544 7.20697 1.99998 7.99979C1.98956 8.78759 2.14032 9.56921 2.44298 10.2966C2.74564 11.024 3.19381 11.6819 3.75998 12.2298C4.30818 12.799 4.96728 13.2498 5.69655 13.5542C6.42583 13.8586 7.20979 14.0103 7.99998 13.9998C8.79018 14.0103 9.57414 13.8586 10.3034 13.5542C11.0327 13.2498 11.6918 12.799 12.24 12.2298C12.8062 11.6819 13.2543 11.024 13.557 10.2966C13.8597 9.56921 14.0104 8.78759 14 7.99979C14.0145 7.20697 13.8658 6.41964 13.563 5.68676C13.2602 4.95389 12.8099 4.29116 12.24 3.73979C11.6892 3.176 11.029 2.73081 10.2998 2.43158C9.57066 2.13236 8.78802 1.98541 7.99998 1.99979ZM16 7.99979C15.9787 8.95967 15.7856 9.90798 15.43 10.7998C15.1096 11.7072 14.6248 12.5479 14 13.2798V20.9998L7.99998 18.9998L1.99998 20.9998V13.2798C0.705674 11.8262 -0.00651482 9.94607 -1.56234e-05 7.99979C-0.0176405 6.95038 0.180021 5.90849 0.580767 4.93844C0.981512 3.9684 1.57684 3.09079 2.32998 2.35979C3.06369 1.59989 3.94535 0.998425 4.92055 0.592522C5.89575 0.186619 6.94379 -0.0151078 7.99998 -0.000207373C9.05618 -0.0151078 10.1042 0.186619 11.0794 0.592522C12.0546 0.998425 12.9363 1.59989 13.67 2.35979C14.4231 3.09079 15.0185 3.9684 15.4192 4.93844C15.8199 5.90849 16.0176 6.95038 16 7.99979Z" fill="black"/>
</svg>
