<svg width="106" height="22" viewBox="0 0 106 22" fill="none" xmlns="http://www.w3.org/2000/svg">
<path d="M11 0.399902L13.4247 7.86252L21.2714 7.86252L14.9233 12.4747L17.348 19.9373L11 15.3251L4.65187 19.9373L7.07662 12.4747L0.72854 7.86252L8.5752 7.86252L11 0.399902Z" fill="#FCC400"/>
<path d="M39 0.399902L41.4247 7.86252L49.2714 7.86252L42.9233 12.4747L45.348 19.9373L39 15.3251L32.6519 19.9373L35.0766 12.4747L28.7285 7.86252L36.5752 7.86252L39 0.399902Z" fill="#FCC400"/>
<path d="M67 0.399902L69.4247 7.86252L77.2714 7.86252L70.9233 12.4747L73.348 19.9373L67 15.3251L60.6519 19.9373L63.0766 12.4747L56.7285 7.86252L64.5752 7.86252L67 0.399902Z" fill="#FCC400"/>
<path d="M95 0.399902L97.4247 7.86252L105.271 7.86252L98.9233 12.4747L101.348 19.9373L95 15.3251L88.6519 19.9373L91.0766 12.4747L84.7285 7.86252L92.5752 7.86252L95 0.399902Z" fill="#FCC400"/>
</svg>
