<svg width="15" height="15" viewBox="0 0 15 15" fill="none" xmlns="http://www.w3.org/2000/svg">
<path d="M0 0H3.05554L3.4051 1.36364H15L12.6487 8.86364H4.98995L4.66926 10.2273H14.1104V11.5909H3.02732L3.82648 8.18932L2.07551 1.36364H0V0ZM4.97969 7.5H11.7238L13.2208 2.72727H3.75529L4.97969 7.5ZM2.56553 13.6364C2.56553 13.2747 2.70068 12.9279 2.94124 12.6721C3.18181 12.4164 3.50808 12.2727 3.84829 12.2727C4.1885 12.2727 4.51478 12.4164 4.75534 12.6721C4.99591 12.9279 5.13106 13.2747 5.13106 13.6364C5.13106 13.998 4.99591 14.3449 4.75534 14.6006C4.51478 14.8563 4.1885 15 3.84829 15C3.50808 15 3.18181 14.8563 2.94124 14.6006C2.70068 14.3449 2.56553 13.998 2.56553 13.6364ZM11.5449 13.6364C11.5449 13.2747 11.68 12.9279 11.9206 12.6721C12.1612 12.4164 12.4874 12.2727 12.8276 12.2727C13.1678 12.2727 13.4941 12.4164 13.7347 12.6721C13.9753 12.9279 14.1104 13.2747 14.1104 13.6364C14.1104 13.998 13.9753 14.3449 13.7347 14.6006C13.4941 14.8563 13.1678 15 12.8276 15C12.4874 15 12.1612 14.8563 11.9206 14.6006C11.68 14.3449 11.5449 13.998 11.5449 13.6364Z" fill="#2B4CC4"/>
</svg>
