<svg width="13" height="15" viewBox="0 0 13 15" fill="none" xmlns="http://www.w3.org/2000/svg">
<path d="M6.18743 1.04689C7.45412 1.04689 8.66892 1.55007 9.5646 2.44576C10.4603 3.34144 10.9635 4.55624 10.9635 5.82293V8.39107L12.2066 10.8773C12.2638 10.9918 12.2909 11.1189 12.2851 11.2468C12.2794 11.3746 12.241 11.4988 12.1738 11.6076C12.1065 11.7165 12.0125 11.8063 11.9008 11.8686C11.789 11.9309 11.6632 11.9636 11.5352 11.9636H0.839631C0.711686 11.9636 0.58586 11.9309 0.474104 11.8686C0.362349 11.8063 0.268374 11.7165 0.201105 11.6076C0.133836 11.4988 0.0955062 11.3746 0.089757 11.2468C0.0840077 11.1189 0.111029 10.9918 0.168256 10.8773L1.41139 8.39107V5.82293C1.41139 4.55624 1.91458 3.34144 2.81026 2.44576C3.70594 1.55007 4.92075 1.04689 6.18743 1.04689ZM6.18743 2.41147C5.28266 2.41147 4.41494 2.77089 3.77517 3.41066C3.13539 4.05044 2.77597 4.91815 2.77597 5.82293V8.39107C2.77596 8.60281 2.72667 8.81164 2.63201 9.00104L1.83373 10.599H10.5418L9.74354 9.00104C9.64864 8.8117 9.59912 8.60287 9.59889 8.39107V5.82293C9.59889 4.91815 9.23947 4.05044 8.5997 3.41066C7.95993 2.77089 7.09221 2.41147 6.18743 2.41147ZM9.51702 0.617042C9.63097 0.476592 9.79602 0.387132 9.97591 0.368325C10.1558 0.349518 10.3358 0.402902 10.4763 0.516745C11.2152 1.11446 11.8217 1.85939 12.2571 2.70417C12.3358 2.86459 12.3484 3.04947 12.2922 3.21909C12.2361 3.3887 12.1156 3.52952 11.9567 3.61128C11.7979 3.69304 11.6132 3.70921 11.4426 3.65633C11.2719 3.60345 11.1288 3.48573 11.044 3.32847C10.6953 2.65203 10.2097 2.05557 9.618 1.57703C9.47744 1.46317 9.38785 1.29817 9.36892 1.11828C9.34998 0.938393 9.40325 0.758349 9.51702 0.617725V0.617042ZM2.85785 0.617042C2.91429 0.686692 2.95644 0.76678 2.98191 0.85273C3.00738 0.93868 3.01567 1.02881 3.00629 1.11796C2.99691 1.20711 2.97006 1.29354 2.92726 1.37231C2.88446 1.45108 2.82656 1.52064 2.75687 1.57703C2.16754 2.05362 1.68339 2.64719 1.33497 3.32028C1.29537 3.40243 1.2397 3.47581 1.17125 3.53607C1.1028 3.59634 1.02296 3.64227 0.93646 3.67115C0.849956 3.70004 0.75854 3.71128 0.667614 3.70423C0.576689 3.69718 0.4881 3.67197 0.407084 3.63009C0.326069 3.58822 0.25427 3.53052 0.195934 3.46042C0.137597 3.39032 0.0939054 3.30924 0.0674421 3.22197C0.0409788 3.13469 0.0322806 3.043 0.0418617 2.9523C0.0514429 2.86161 0.0791089 2.77376 0.123224 2.69394C0.558202 1.85333 1.16269 1.11201 1.89855 0.516745C2.03917 0.40298 2.21922 0.34971 2.3991 0.368645C2.57899 0.387581 2.744 0.477172 2.85785 0.617725V0.617042ZM4.14056 12.6458H8.23431C8.23431 13.0078 8.09054 13.3548 7.83463 13.6108C7.57872 13.8667 7.23163 14.0104 6.86972 14.0104H5.50514C5.14323 14.0104 4.79614 13.8667 4.54024 13.6108C4.28433 13.3548 4.14056 13.0078 4.14056 12.6458Z" fill="#2B4CC4"/>
</svg>
