<svg width="16" height="16" viewBox="0 0 16 16" fill="none" xmlns="http://www.w3.org/2000/svg">
<path d="M9.23387 0C9.35296 3.75279e-06 9.46898 0.0378043 9.56521 0.107958C9.66144 0.178111 9.73293 0.276998 9.76937 0.390375L10.3881 2.313C10.648 2.44012 10.8966 2.583 11.134 2.74387L13.1095 2.31863C13.226 2.29376 13.3473 2.3065 13.4561 2.35502C13.5649 2.40355 13.6554 2.48534 13.7147 2.58863L15.274 5.2875C15.3335 5.39073 15.3588 5.51019 15.346 5.62868C15.3333 5.74716 15.2832 5.85854 15.2031 5.94675L13.8475 7.443C13.8672 7.72991 13.8672 8.01784 13.8475 8.30475L15.2031 9.80325C15.2832 9.89146 15.3333 10.0028 15.346 10.1213C15.3588 10.2398 15.3335 10.3593 15.274 10.4625L13.7147 13.1625C13.6553 13.2656 13.5646 13.3471 13.4559 13.3955C13.3471 13.4438 13.2259 13.4563 13.1095 13.4314L11.134 13.0061C10.8977 13.1659 10.648 13.3099 10.3892 13.437L9.76937 15.3596C9.73293 15.473 9.66144 15.5719 9.56521 15.642C9.46898 15.7122 9.35296 15.75 9.23387 15.75H6.11537C5.99628 15.75 5.88027 15.7122 5.78403 15.642C5.6878 15.5719 5.61631 15.473 5.57987 15.3596L4.96225 13.4381C4.70307 13.3114 4.45308 13.1667 4.21412 13.005L2.23975 13.4314C2.12327 13.4562 2.00191 13.4435 1.89314 13.395C1.78437 13.3465 1.6938 13.2647 1.6345 13.1614L0.0752463 10.4625C0.0157052 10.3593 -0.00951464 10.2398 0.0032234 10.1213C0.0159614 10.0028 0.0659991 9.89146 0.146121 9.80325L1.50175 8.30475C1.48211 8.01859 1.48211 7.73141 1.50175 7.44525L0.146121 5.94675C0.0659991 5.85854 0.0159614 5.74716 0.0032234 5.62868C-0.00951464 5.51019 0.0157052 5.39073 0.0752463 5.2875L1.6345 2.5875C1.69397 2.48442 1.7846 2.40286 1.89336 2.35455C2.00211 2.30623 2.12339 2.29365 2.23975 2.31863L4.21412 2.745C4.45262 2.58413 4.70237 2.439 4.96225 2.31188L5.581 0.390375C5.61732 0.277363 5.68846 0.178738 5.78425 0.108619C5.88003 0.0384991 5.99554 0.000478876 6.11425 0H9.23275H9.23387ZM8.82212 1.125H6.52712L5.88812 3.11287L5.45725 3.32325C5.24543 3.4269 5.04095 3.54493 4.84525 3.6765L4.447 3.9465L2.404 3.5055L1.2565 5.4945L2.65712 7.04475L2.62337 7.52175C2.60721 7.75697 2.60721 7.99303 2.62337 8.22825L2.65712 8.70525L1.25425 10.2555L2.40287 12.2445L4.44587 11.8046L4.84412 12.0735C5.03983 12.2051 5.2443 12.3231 5.45612 12.4267L5.887 12.6371L6.52712 14.625H8.82437L9.46562 12.636L9.89537 12.4267C10.107 12.3233 10.3111 12.2053 10.5062 12.0735L10.9034 11.8046L12.9475 12.2445L14.095 10.2555L12.6932 8.70525L12.727 8.22825C12.7432 7.99265 12.7432 7.75622 12.727 7.52063L12.6932 7.04363L14.0961 5.4945L12.9475 3.5055L10.9034 3.94425L10.5062 3.6765C10.3111 3.54467 10.107 3.42663 9.89537 3.32325L9.46562 3.114L8.82325 1.125H8.82212ZM7.67462 4.5C8.56973 4.5 9.42817 4.85558 10.0611 5.48851C10.694 6.12145 11.0496 6.97989 11.0496 7.875C11.0496 8.77011 10.694 9.62855 10.0611 10.2615C9.42817 10.8944 8.56973 11.25 7.67462 11.25C6.77952 11.25 5.92107 10.8944 5.28814 10.2615C4.6552 9.62855 4.29962 8.77011 4.29962 7.875C4.29962 6.97989 4.6552 6.12145 5.28814 5.48851C5.92107 4.85558 6.77952 4.5 7.67462 4.5ZM7.67462 5.625C7.07788 5.625 6.50559 5.86205 6.08363 6.28401C5.66167 6.70597 5.42462 7.27826 5.42462 7.875C5.42462 8.47174 5.66167 9.04403 6.08363 9.46599C6.50559 9.88795 7.07788 10.125 7.67462 10.125C8.27136 10.125 8.84365 9.88795 9.26561 9.46599C9.68757 9.04403 9.92462 8.47174 9.92462 7.875C9.92462 7.27826 9.68757 6.70597 9.26561 6.28401C8.84365 5.86205 8.27136 5.625 7.67462 5.625Z" fill="#2B4CC4"/>
</svg>
