<svg width="19" height="40" viewBox="0 0 19 40" fill="none" xmlns="http://www.w3.org/2000/svg">
<path d="M9.5 0C4.25402 0 0 3.95836 0 8.84151C0 13.7247 4.25402 17.6818 9.5 17.6818C14.746 17.6818 19 13.7247 19 8.84151C19 3.95836 14.746 0 9.5 0ZM9.24875 12.7038C8.56401 12.6001 8.04173 12.3801 7.68148 12.0454C7.32249 11.7103 7.05651 11.1939 6.88522 10.4947L8.03836 10.2704C8.19492 10.7644 8.38725 11.1172 8.61494 11.3284C8.85146 11.5303 9.16794 11.6306 9.56313 11.6306C9.95831 11.6306 10.2693 11.5155 10.5269 11.2846C10.7824 11.0578 10.9099 10.7636 10.9099 10.4028C10.9099 10.0803 10.803 9.82193 10.59 9.62677C10.4819 9.53194 10.3219 9.42614 10.1102 9.30769C9.89855 9.18925 9.62962 9.05943 9.30051 8.91991C8.62251 8.63666 8.17809 8.37743 7.96387 8.1397C7.62508 7.78564 7.4559 7.3616 7.4559 6.86633C7.4559 6.63282 7.4963 6.41532 7.57626 6.21342C7.65623 6.01152 7.77322 5.82901 7.92431 5.6642C8.07624 5.50065 8.26436 5.3586 8.48826 5.23805C8.71131 5.1175 8.96467 5.02393 9.24833 4.9548V3.99841H10.165V4.9548C10.577 5.01676 10.9149 5.14322 11.1763 5.335C11.4385 5.52805 11.6885 5.821 11.9262 6.21806L10.904 6.75042C10.5968 6.22944 10.1944 5.97021 9.69907 5.97021C9.39184 5.97021 9.13596 6.05493 8.93353 6.22396C8.73067 6.39214 8.62967 6.60416 8.62967 6.8579C8.62967 7.08804 8.71174 7.28067 8.87629 7.43326C9.03748 7.58331 9.36154 7.76035 9.85142 7.96435C10.2735 8.14349 10.6228 8.31168 10.8998 8.46974C11.1754 8.62781 11.3829 8.77997 11.5226 8.92539C11.9178 9.32245 12.1148 9.8017 12.1148 10.3644C12.1148 10.9271 11.9368 11.4051 11.5811 11.827C11.2276 12.2464 10.7558 12.5297 10.1658 12.6764V13.6859H9.24917V12.7059L9.24875 12.7038Z" fill="#F6D738"/>
<path d="M17.5517 8.45465C17.5483 8.39016 17.5437 8.32736 17.5382 8.26413C17.5327 8.18742 17.5248 8.1107 17.5155 8.03399C17.4974 7.88183 17.4759 7.7305 17.449 7.58171V7.57961C17.4208 7.43081 17.3892 7.28287 17.3535 7.13745C17.3354 7.06284 17.3164 6.98865 17.295 6.91658C16.7601 5.03666 15.4617 3.44674 13.7265 2.45072C12.4968 1.7447 11.0499 1.33752 9.49943 1.33752C5.04719 1.33752 1.4375 4.69693 1.4375 8.84159C1.4375 12.9863 5.04761 16.3444 9.49943 16.3444C13.9513 16.3444 17.2306 13.2847 17.5391 9.40304C17.5437 9.34234 17.5479 9.27996 17.5513 9.218C17.558 9.0907 17.5614 8.96214 17.5614 8.83232C17.5614 8.7025 17.558 8.57984 17.5513 8.45465H17.5517ZM9.2486 12.7039C8.56387 12.6002 8.04159 12.3801 7.68133 12.0455C7.32234 11.7104 7.05636 11.194 6.88507 10.4947L8.03822 10.2705C8.19478 10.7645 8.38711 11.1173 8.61479 11.3285C8.85131 11.5304 9.1678 11.6307 9.56298 11.6307C9.95817 11.6307 10.2692 11.5156 10.5267 11.2846C10.7822 11.0579 10.9097 10.7637 10.9097 10.4029C10.9097 10.0804 10.8028 9.82202 10.5899 9.62686C10.4817 9.53202 10.3218 9.42622 10.1101 9.30778C9.89841 9.18934 9.62948 9.05951 9.30037 8.91999C8.62237 8.63674 8.17794 8.37752 7.96373 8.13979C7.62494 7.78572 7.45575 7.36169 7.45575 6.86642C7.45575 6.6329 7.49616 6.41541 7.57612 6.21351C7.65608 6.0116 7.77308 5.82909 7.92417 5.66428C8.0761 5.50074 8.26422 5.35869 8.48811 5.23814C8.71117 5.11759 8.96452 5.02402 9.24818 4.95489V3.99849H10.1648V4.95489C10.5768 5.01685 10.9148 5.1433 11.1761 5.33509C11.4383 5.52814 11.6883 5.82108 11.9261 6.21814L10.9038 6.7505C10.5966 6.22952 10.1943 5.9703 9.69892 5.9703C9.39169 5.9703 9.13581 6.05502 8.93338 6.22404C8.73053 6.39222 8.62952 6.60424 8.62952 6.85799C8.62952 7.08813 8.71159 7.28076 8.87614 7.43334C9.03733 7.5834 9.36139 7.76043 9.85127 7.96444C10.2734 8.14358 10.6227 8.31176 10.8996 8.46983C11.1753 8.62789 11.3828 8.78005 11.5225 8.92547C11.9177 9.32253 12.1146 9.80178 12.1146 10.3645C12.1146 10.9272 11.9366 11.4052 11.581 11.8271C11.2275 12.2465 10.7557 12.5298 10.1657 12.6765V13.686H9.24902V12.706L9.2486 12.7039Z" fill="#F3CC30"/>
<path d="M17.5623 8.83227C17.5623 8.96209 17.5589 9.09065 17.5522 9.21795C17.5488 9.27991 17.5442 9.34187 17.54 9.40299C17.226 13.2813 13.7456 16.3351 9.50037 16.3351C6.64696 16.3351 4.13949 14.9559 2.70605 12.8741C3.93327 13.5767 5.37807 13.9814 6.92388 13.9814C7.73235 13.9814 8.51262 13.871 9.24912 13.6644V13.6834H10.1657V13.3496C13.0044 12.1891 14.9862 9.54925 14.9862 6.47816C14.9862 5.83326 14.8995 5.20816 14.7341 4.61047C14.7026 4.49202 14.6664 4.37695 14.6285 4.26104V4.25977C14.4147 3.61571 14.1096 3.0079 13.7279 2.44983C13.7245 2.44519 13.7224 2.44098 13.719 2.43634C15.4597 3.4332 16.7639 5.02902 17.2963 6.91568C17.3178 6.98776 17.3367 7.06237 17.3548 7.13655C17.3919 7.28197 17.4234 7.42992 17.4504 7.57871V7.58082C17.4773 7.73088 17.5 7.88093 17.5168 8.0331C17.5257 8.10981 17.5337 8.18652 17.5396 8.26324C17.545 8.32646 17.5497 8.38969 17.553 8.45376C17.5598 8.57895 17.5631 8.7054 17.5631 8.83143L17.5623 8.83227Z" fill="#EDBD31"/>
<path d="M2.85017 9.5277C2.85017 5.86987 6.03648 2.90416 9.96686 2.90416C12.2643 2.90416 14.3072 3.91746 15.608 5.49009C14.3791 3.50438 12.0758 2.16779 9.437 2.16779C5.50662 2.16779 2.32031 5.13308 2.32031 8.79133C2.32031 10.3113 2.87079 11.7111 3.79584 12.8289C3.19443 11.8569 2.85017 10.7298 2.85017 9.5277Z" fill="#F7DB5E"/>
<path d="M4.16895 26.0411V28.1722C4.16895 29.3292 4.47196 30.4635 5.04475 31.4502L9.4911 39.1111L13.9492 31.4663C14.5258 30.477 14.8314 29.3385 14.8314 28.1772V26.0398L4.16937 26.0415L4.16895 26.0411Z" fill="white"/>
<path d="M9.50776 34.2968C8.55872 34.2959 7.65514 34.5016 6.83447 34.8725V35.0445L9.49555 39.6292L12.1655 35.0504V34.8717C11.3494 34.5029 10.4513 34.2976 9.50776 34.2968Z" fill="#07293E"/>
<path d="M5.84861 29.4364C6.85403 29.433 7.67428 28.5626 7.67134 27.5012C7.67428 28.5622 8.49959 29.4279 9.50501 29.4246C10.5104 29.4212 11.3307 28.5504 11.3277 27.4894C11.3307 28.5504 12.156 29.4161 13.1614 29.4128C14.1668 29.4094 14.9871 28.5386 14.9841 27.4776L14.985 17.3956L11.3282 17.4074L7.67134 17.4192L4.01451 17.431L4.01367 27.513C4.01662 28.574 4.84192 29.4397 5.84734 29.4364H5.84861Z" fill="#07293E"/>
<path d="M7.67132 27.501C7.67427 28.562 8.49957 29.4277 9.50499 29.4244C10.5104 29.421 11.3307 28.5502 11.3277 27.4892C11.3307 28.5502 11.3286 17.4072 11.3286 17.4072L7.67174 17.419C7.67174 17.419 7.67427 28.562 7.6709 27.501H7.67132Z" fill="#FFC301"/>
<path d="M15.0555 17.4043C15.5967 17.3887 16.0357 16.9192 16.0357 16.3442C16.0357 15.7693 15.5824 15.2812 15.0281 15.2812H3.9714C3.41713 15.2812 2.96387 15.7596 2.96387 16.3442C2.96387 16.9289 3.41713 17.4073 3.9714 17.4073H15.0281C15.0374 17.4073 15.0462 17.4047 15.0555 17.4043Z" fill="white"/>
</svg>
