<svg width="1123" height="141" viewBox="0 0 1123 141" fill="none" xmlns="http://www.w3.org/2000/svg">
<rect y="2" width="1123" height="137" rx="20" fill="url(#paint0_linear_1193_1039)"/>
<path d="M786 10.3745C753.415 21.3332 717.236 36.9665 680.856 38.9579C619.59 42.3117 564.815 20.2286 506.644 9.65992C456.246 0.503484 397.83 -4.56823 352.607 18.9495C324.305 33.6674 300.053 48.9167 268.586 60.0382C223.769 75.8782 180.929 84.7759 131.163 87.1925C105.22 88.4523 86.3995 86.1923 64.4691 99.1618C46.7343 109.65 38.6621 133.565 17 139" stroke="#C1C1C1" stroke-opacity="0.2" stroke-width="3" stroke-linecap="round"/>
<path d="M841 10.3745C808.923 21.3332 773.309 36.9665 737.497 38.9579C677.187 42.3117 623.267 20.2286 566.003 9.65992C516.392 0.503484 458.887 -4.56823 414.37 18.9495C386.51 33.6674 362.636 48.9167 331.66 60.0382C287.543 75.8782 245.371 84.7759 196.382 87.1925C170.843 88.4523 152.317 86.1923 130.728 99.1618C113.27 109.65 105.324 133.565 84 139" stroke="#C1C1C1" stroke-opacity="0.2" stroke-width="3" stroke-linecap="round"/>
<defs>
<linearGradient id="paint0_linear_1193_1039" x1="553.5" y1="-6.49985" x2="1452" y2="2.00001" gradientUnits="userSpaceOnUse">
<stop stop-color="#2B4CC5"/>
<stop offset="1" stop-color="#02040D" stop-opacity="0"/>
</linearGradient>
</defs>
</svg>
